# xmcd
#
# Track frame offsets:
# 150
# 8655
# 25730
# 36935
# 49675
# 62270
# 75740
# 92525
# 109165
# 125985
# 145430
# 160590
# 172815
# 189390
#
# Disc length: 2726 seconds
#
#
# Revision: 0
# Processed by: cddbd v1.5.2PL0 Copyright (c) Steve Scherf et al.
# Submitted via: FreeRIP 2.945 
#
DISCID=a90aa40e
DTITLE=Gladys Knight and The Pips - Best Of
DYEAR=1900
DGENRE=R&B
TTITLE0=every beat of my heart
TTITLE1=letter full of tears
TTITLE2=since i've lost you
TTITLE3=all i could do was cry
TTITLE4=i wish it would rain
TTITLE5=got myself a good man
TTITLE6=for once in my life
TTITLE7=feeling alright
TTITLE8=more me the woman that you
TTITLE9=neighter one of us (wants to be the first)
TTITLE10=all i needs is time
TTITLE11=the only time you love me is when you're loosing me
TTITLE12=between her goodbye and my hello
TTITLE13=i don't want to do wrong
EXTD=
EXTT0=
EXTT1=
EXTT2=
EXTT3=
EXTT4=
EXTT5=
EXTT6=
EXTT7=
EXTT8=
EXTT9=
EXTT10=
EXTT11=
EXTT12=
EXTT13=
PLAYORDER=
